<svg width="80" height="80" viewBox="0 0 80 80" fill="none" xmlns="http://www.w3.org/2000/svg">
<path d="M77.3802 61.7173L61.4926 50.9181C59.4764 49.5587 56.7738 50.006 55.2832 51.946L50.6553 58.0108C50.0605 58.8102 48.9794 59.042 48.119 58.5549L47.2387 58.0602C44.3204 56.4389 40.6893 54.4205 33.3733 46.9611C26.0574 39.5017 24.0731 35.7979 22.4824 32.8289L21.9997 31.9316C21.5152 31.0548 21.7383 29.9482 22.5229 29.3371L28.4692 24.6215C30.3718 23.1021 30.8113 20.3483 29.4791 18.2927L18.8838 2.09922C17.5185 0.0059463 14.7792 -0.622443 12.6655 0.672614L6.02191 4.74027C3.93443 5.99111 2.40294 8.01689 1.74855 10.3931C-0.643807 19.2777 1.15594 34.6112 23.317 57.2015C40.9457 75.1681 54.0695 79.9998 63.0898 79.9998C65.1658 80.0088 67.2337 79.7335 69.2377 79.1812C71.5695 78.515 73.5574 76.9539 74.7838 74.8256L78.7787 68.0582C80.0511 65.9034 79.4349 63.1097 77.3802 61.7173ZM76.5247 66.6902L72.5391 73.4617C71.6585 74.9978 70.2287 76.1273 68.5495 76.6135C60.5023 78.8653 46.4434 77.0002 25.1678 55.3151C3.89228 33.6301 2.06249 19.3018 4.27182 11.0985C4.74947 9.38491 5.85896 7.9258 7.36793 7.02681L14.0116 2.96447C14.9287 2.40201 16.1176 2.67465 16.71 3.58301L22.4655 12.3903L27.2962 19.775C27.8747 20.6667 27.6847 21.8618 26.8594 22.5216L20.9117 27.2371C19.1016 28.6478 18.5847 31.2003 19.6992 33.226L20.1714 34.1007C21.8432 37.2257 23.9216 41.1134 31.5097 48.8462C39.0977 56.5789 42.9107 58.6975 45.9754 60.4013L46.8347 60.8839C48.8221 62.0196 51.3265 61.4929 52.7106 59.6481L57.3371 53.5859C57.9846 52.7452 59.1566 52.5516 60.0317 53.1406L75.918 63.9398C76.8098 64.5432 77.0773 65.7556 76.5247 66.6902Z" fill="black" fill-opacity="0.54"/>
<path d="M45.4232 13.3382C57.6987 13.3521 67.6464 23.4915 67.6602 36.0032C67.6602 36.7395 68.2458 37.3364 68.9682 37.3364C69.6907 37.3364 70.2762 36.7395 70.2762 36.0032C70.261 22.0194 59.1429 10.6872 45.4232 10.6719C44.7008 10.6719 44.1152 11.2687 44.1152 12.0051C44.1152 12.7414 44.7008 13.3382 45.4232 13.3382Z" fill="black" fill-opacity="0.54"/>
<path d="M45.4232 21.3373C53.366 21.3468 59.8025 27.9072 59.8119 36.0028C59.8119 36.7392 60.3976 37.336 61.1199 37.336C61.8423 37.336 62.4279 36.7392 62.4279 36.0028C62.417 26.4351 54.8101 18.6818 45.4232 18.6709C44.7008 18.6709 44.1152 19.2677 44.1152 20.0041C44.1152 20.7404 44.7008 21.3373 45.4232 21.3373Z" fill="black" fill-opacity="0.54"/>
<path d="M45.4232 29.3373C49.0335 29.3416 51.9591 32.3236 51.9636 36.0035C51.9636 36.7398 52.5493 37.3366 53.2716 37.3366C53.9939 37.3366 54.5796 36.7398 54.5796 36.0035C54.5737 30.8517 50.4777 26.6767 45.4232 26.6709C44.7008 26.6709 44.1152 27.2677 44.1152 28.0041C44.1152 28.7404 44.7008 29.3373 45.4232 29.3373Z" fill="black" fill-opacity="0.54"/>
</svg>
