<svg width="80" height="80" viewBox="0 0 80 80" fill="none" xmlns="http://www.w3.org/2000/svg">
<path d="M78.9638 69.9647L78.8251 69.0663C76.0896 50.8939 71.5525 33.0513 65.2836 15.8125L65.2389 15.6909C68.2195 14.3732 70.0838 11.3072 69.9155 8.00003C69.9155 3.58866 67.0331 0 63.4904 0H19.14C15.5666 0 12.6592 3.58851 12.6592 8.00003C12.4987 11.3053 14.3655 14.3658 17.3447 15.6811L13.5656 25.4974C9.59911 36.3225 6.31554 47.395 3.73482 58.647L0.77712 71.5468C0.279988 73.6478 0.757328 75.8652 2.07169 77.5611C3.23862 79.091 5.03032 79.9902 6.93143 80H34.6583C34.869 79.9728 35.0749 79.915 35.2695 79.8283C35.4545 79.9363 35.6632 79.9954 35.8762 80H70.8651C73.234 79.9911 75.4801 78.9247 77.0111 77.082C78.6529 75.1152 79.3665 72.514 78.9638 69.9647ZM23.957 2.66668H63.4902C65.5908 2.66668 67.2994 5.05854 67.2994 8.00003C67.2994 10.9414 65.591 13.3334 63.4902 13.3334H23.957C25.056 11.7822 25.639 9.91327 25.6209 8.00003C25.639 6.0868 25.0559 4.21788 23.957 2.66668ZM15.2754 8.00003C15.2754 5.0587 17.0089 2.66668 19.1401 2.66668C21.2714 2.66668 23.0048 5.05854 23.0048 8.00003C23.0048 10.9414 21.2714 13.3334 19.1401 13.3334C17.0089 13.3334 15.2754 10.9414 15.2754 8.00003ZM6.93158 77.3332C5.82761 77.3284 4.78877 76.7999 4.12131 75.9035L4.1132 75.8901C4.12473 75.8787 4.14016 75.875 4.15123 75.863L17.1225 62.0114C17.5526 61.539 18.1703 61.2916 18.8009 61.3396C19.3996 61.3903 19.949 61.698 20.3121 62.186L31.9174 77.3332H6.93158ZM22.3738 60.5455C21.5376 59.43 20.2628 58.7455 18.8874 58.6734C17.5119 58.6011 16.175 59.1487 15.2307 60.1706L3.22475 72.9914C3.23255 72.7096 3.26574 72.4292 3.32418 72.1536L6.28204 59.2539C8.83564 48.12 12.0843 37.1637 16.0079 26.4518L19.1101 18.3945C25.0019 34.957 29.2914 52.067 31.9171 69.4802L32.5973 73.8891L22.3738 60.5455ZM75.0231 75.3488C73.995 76.6069 72.4715 77.334 70.8652 77.3332H35.8763C35.8421 77.3332 35.8134 77.3505 35.7797 77.353L34.5012 69.0663C31.7745 50.9601 27.2596 33.181 21.026 16.0001H62.5585L62.8349 16.75C69.0411 33.8195 73.5328 51.4867 76.2411 69.4804L76.3798 70.3789C76.6624 72.1579 76.1666 73.9742 75.0231 75.3488Z" fill="black" fill-opacity="0.54"/>
<path d="M32.9343 9.33351H58.7975C59.52 9.33351 60.1055 8.73654 60.1055 8.00025C60.1055 7.26381 59.5198 6.66699 58.7975 6.66699H32.9343C32.2119 6.66699 31.6264 7.26396 31.6264 8.00025C31.6264 8.73654 32.2119 9.33351 32.9343 9.33351Z" fill="black" fill-opacity="0.54"/>
<path d="M61.469 29.3159C56.9249 24.6844 47.8905 26.3576 41.3311 33.045C34.8192 39.6835 33.1613 48.8008 37.5821 53.4647L37.6051 53.4919C37.6296 53.5175 37.6485 53.547 37.6734 53.5724C39.4925 55.3557 41.9422 56.3128 44.4646 56.2261C45.3975 56.2221 46.3275 56.1244 47.2415 55.9344C51.2703 54.9935 54.9432 52.877 57.8113 49.8433C60.7877 46.9199 62.8638 43.1758 63.7856 39.0686C64.5654 35.0971 63.7421 31.6336 61.469 29.3159ZM43.1808 34.9305C46.7447 31.2976 51.0674 29.3094 54.6364 29.3094C56.0187 29.2754 57.3826 29.6384 58.5723 30.3569C56.5007 32.3807 54.2673 34.225 51.8951 35.8706C49.5969 37.445 47.4524 39.2405 45.491 41.2325C42.8291 43.9499 40.474 46.9624 38.4696 50.2138C36.4588 46.2953 38.3131 39.8923 43.1808 34.9305ZM61.2206 38.5463C60.4006 42.137 58.5732 45.407 55.9616 47.9577C53.4596 50.6201 50.2515 52.4827 46.7287 53.3184C44.5346 53.9086 42.1987 53.5481 40.2742 52.3222C42.2589 48.9763 44.6314 45.886 47.3405 43.1178C49.198 41.235 51.228 39.538 53.403 38.05C55.8959 36.32 58.2417 34.3794 60.4157 32.2487C61.4645 34.1657 61.7525 36.4196 61.2206 38.5463Z" fill="black" fill-opacity="0.54"/>
<path d="M55.3486 65.333H41.5548C40.8323 65.333 40.2468 65.93 40.2468 66.6663C40.2468 67.4027 40.8325 67.9995 41.5548 67.9995H55.3486C56.0711 67.9995 56.6566 67.4026 56.6566 66.6663C56.6566 65.93 56.0709 65.333 55.3486 65.333Z" fill="black" fill-opacity="0.54"/>
<path d="M65.9917 65.333H60.8197C60.4728 65.3328 60.1399 65.4734 59.8946 65.7235C59.6493 65.9735 59.5115 66.3127 59.5115 66.6664C59.5114 67.02 59.6493 67.3593 59.8946 67.6094C60.1399 67.8594 60.4726 67.9998 60.8197 67.9998H65.9917C66.7142 67.9998 67.2997 67.4029 67.2997 66.6666C67.2997 65.93 66.714 65.333 65.9917 65.333Z" fill="black" fill-opacity="0.54"/>
</svg>
