<svg width="90" height="80" viewBox="0 0 90 80" fill="none" xmlns="http://www.w3.org/2000/svg">
<path d="M71.4687 62.4731C70.6793 61.9256 69.5956 62.1225 69.0487 62.9119C68.5186 63.6771 67.9179 64.4211 67.2624 65.1235C66.8233 65.5947 66.2191 66.1627 65.5617 66.722C64.8302 67.3446 64.7419 68.4421 65.3643 69.1738C65.7083 69.578 66.1975 69.7856 66.6897 69.7856C67.0881 69.7856 67.4887 69.6494 67.8161 69.3708C68.5831 68.718 69.2716 68.0696 69.8062 67.4955C70.5753 66.6715 71.2824 65.7959 71.9078 64.8929C72.4547 64.1035 72.2582 63.0201 71.4687 62.4731Z" fill="black" fill-opacity="0.5"/>
<path d="M63.8918 70.2705C63.4838 69.401 62.4487 69.0267 61.5788 69.4345L61.5244 69.459C60.6456 69.8467 60.2477 70.8735 60.6357 71.7523C60.9226 72.4027 61.5595 72.7896 62.2275 72.7896C62.4621 72.7896 62.7005 72.7418 62.9287 72.6411C62.9712 72.6225 63.0132 72.6034 63.0555 72.5837C63.9251 72.1757 64.2995 71.1404 63.8918 70.2705Z" fill="black" fill-opacity="0.5"/>
<path d="M84.5271 0H5.87462C3.00957 0 0.678955 2.33096 0.678955 5.19566V53.9352C0.678955 56.7998 3.00957 59.1306 5.87462 59.1306H42.4983C44.0509 65.6993 47.5617 70.3515 50.63 73.332C55.1086 77.6829 60.2426 80 62.2267 80C64.2107 80 69.3447 77.6831 73.8235 73.3322C76.8918 70.3515 80.4028 65.6993 81.9551 59.1307H84.5271C87.392 59.1307 89.7228 56.7999 89.7228 53.9354V5.19566C89.7228 2.33096 87.392 0 84.5271 0ZM79.2878 52.0032C79.288 61.1664 75.0582 67.2445 71.5097 70.7299C67.3005 74.8643 62.9827 76.4725 62.2267 76.5214C61.4706 76.4725 57.1526 74.8645 52.9434 70.7299C49.3952 67.2445 45.1655 61.1664 45.1655 52.0032V43.4387C51.1533 41.707 56.7561 39.3371 62.2273 36.2227C67.5751 39.258 73.429 41.7333 79.2878 43.4377V52.0032ZM86.2445 53.9352C86.2445 54.882 85.4739 55.6523 84.5271 55.6523H82.56C82.6932 54.4869 82.7663 53.2716 82.7663 52.0032V42.1201C82.7663 41.335 82.2403 40.6476 81.483 40.4418C75.1676 38.7269 68.8127 36.0545 63.1052 32.7138C62.5626 32.3962 61.8909 32.3966 61.348 32.7142C55.4787 36.1496 49.4674 38.6771 42.9705 40.4418C42.2131 40.6477 41.6872 41.3352 41.6872 42.1201V52.0032C41.6872 53.2716 41.7601 54.4869 41.8935 55.6523H5.87462C4.92766 55.6523 4.15722 54.8819 4.15722 53.9352V24.3475H86.2445V53.9352ZM86.2445 20.8694H4.15722V13.9132H86.2445V20.8694ZM86.2445 10.4348H4.15722V5.19566C4.15722 4.2487 4.92766 3.47827 5.87462 3.47827H84.5271C85.4739 3.47827 86.2445 4.2487 86.2445 5.19566V10.4348Z" fill="black" fill-opacity="0.5"/>
<path d="M21.5478 36.5215C20.4993 36.5215 19.464 36.7335 18.5057 37.1377C17.5695 36.741 16.5407 36.5215 15.4617 36.5215C11.1464 36.5215 7.63544 40.0321 7.63544 44.3473C7.63544 48.6624 11.1462 52.1734 15.4617 52.1734C16.5407 52.1734 17.5695 51.9539 18.5055 51.5572C19.464 51.9614 20.4993 52.1734 21.5478 52.1734C25.8633 52.1734 29.3743 48.6624 29.3743 44.3473C29.3743 40.0321 25.8633 36.5215 21.5478 36.5215ZM15.4617 48.6951C13.0641 48.6951 11.1137 46.7448 11.1137 44.3473C11.1137 41.9499 13.0641 39.9998 15.4617 39.9998C17.8589 39.9998 19.8094 41.9499 19.8094 44.3473C19.8094 46.7447 17.8589 48.6951 15.4617 48.6951ZM21.9789 48.6739C22.805 47.4337 23.2876 45.9459 23.2876 44.3474C23.2876 42.749 22.805 41.2615 21.9791 40.0213C24.1748 40.2384 25.8958 42.0958 25.8958 44.3474C25.8958 46.5991 24.1748 48.4567 21.9789 48.6739Z" fill="black" fill-opacity="0.5"/>
<path d="M18.3198 28.6953H9.37421C8.41368 28.6953 7.63507 29.4739 7.63507 30.4344C7.63507 31.3948 8.41368 32.1736 9.37421 32.1736H18.3198C19.2803 32.1736 20.0589 31.3946 20.0589 30.4344C20.0589 29.4739 19.2803 28.6953 18.3198 28.6953Z" fill="black" fill-opacity="0.5"/>
<path d="M23.461 28.6953H23.3785C22.418 28.6953 21.6394 29.4739 21.6394 30.4344C21.6394 31.3948 22.418 32.1736 23.3785 32.1736H23.461C24.4213 32.1736 25.2001 31.3946 25.2001 30.4344C25.2001 29.4739 24.4213 28.6953 23.461 28.6953Z" fill="black" fill-opacity="0.5"/>
<path d="M71.7727 48.0044C71.0939 47.3256 69.9929 47.3252 69.3134 48.0042L60.0131 57.3039L55.1395 52.4299C54.4602 51.7513 53.359 51.751 52.6798 52.4299C52.0007 53.1092 52.0005 54.2105 52.6798 54.8896L58.7833 60.9933C59.123 61.3329 59.568 61.5028 60.0131 61.5028C60.4581 61.5028 60.9033 61.3329 61.2426 60.9933L71.7725 50.464C72.4519 49.7851 72.4519 48.6838 71.7727 48.0044Z" fill="black" fill-opacity="0.5"/>
</svg>
